<svg xmlns="http://www.w3.org/2000/svg" width="1200" height="675" viewBox="0 0 1200 675" role="img" aria-label="מקומי">
  <defs>
    <linearGradient id="bg" x1="0" y1="0" x2="1" y2="1">
      <stop offset="0" stop-color="#3A3329"/>
      <stop offset="1" stop-color="#17130E"/>
    </linearGradient>
    <radialGradient id="glow" cx="24%" cy="22%" r="70%">
      <stop offset="0" stop-color="#FFD27A" stop-opacity=".30"/>
      <stop offset=".48" stop-color="#FFD27A" stop-opacity=".10"/>
      <stop offset="1" stop-color="#FFD27A" stop-opacity="0"/>
    </radialGradient>
    <linearGradient id="veil" x1="0" y1="0" x2="0" y2="1">
      <stop offset="0" stop-color="#fff" stop-opacity=".10"/>
      <stop offset=".52" stop-color="#fff" stop-opacity=".02"/>
      <stop offset="1" stop-color="#000" stop-opacity=".18"/>
    </linearGradient>
  </defs>
  <rect width="1200" height="675" rx="54" fill="url(#bg)"/>
  <rect width="1200" height="675" rx="54" fill="url(#glow)"/>
  <rect width="1200" height="675" rx="54" fill="url(#veil)"/>
  <path d="M78 492 C244 408 402 558 594 468 C768 386 914 424 1160 324" fill="none" stroke="#FFD27A" stroke-opacity=".18" stroke-width="28" stroke-linecap="round"/>
  <path d="M46 548 C248 476 392 612 628 526 C830 452 960 486 1200 402 L1200 675 L0 675 Z" fill="#FFD27A" opacity=".085"/>
  <path d="M126 172 H680" stroke="#FFD27A" stroke-opacity=".20" stroke-width="7" stroke-linecap="round"/>
  <path d="M126 204 H506" stroke="#fff" stroke-opacity=".10" stroke-width="7" stroke-linecap="round"/>
  <path d="M826 138 C938 82 1062 154 1076 264 C1090 390 946 450 826 390 C718 336 712 196 826 138 Z" fill="#FFD27A" opacity=".115"/>
  <path d="M882 184 C950 150 1024 192 1032 258 C1040 336 956 374 882 338 C812 304 812 220 882 184 Z" fill="none" stroke="#FFD27A" stroke-opacity=".30" stroke-width="10"/>
  <path d="M796 464 H1030" stroke="#fff" stroke-opacity=".12" stroke-width="8" stroke-linecap="round"/>
  <path d="M796 496 H946" stroke="#FFD27A" stroke-opacity=".22" stroke-width="8" stroke-linecap="round"/>
</svg>
