<svg xmlns="http://www.w3.org/2000/svg" viewBox="0 0 390 780" role="img" aria-label="צילום פיד לדוגמה - פיד אישי">
  <defs>
    <linearGradient id="bg" x1="0" y1="0" x2="0" y2="1"><stop stop-color="#111722"/><stop offset="1" stop-color="#050608"/></linearGradient>
    <linearGradient id="card" x1="0" y1="0" x2="0" y2="1"><stop stop-color="#171d27"/><stop offset="1" stop-color="#0a0d13"/></linearGradient>
    <filter id="shadow" x="-20%" y="-20%" width="140%" height="140%"><feDropShadow dx="0" dy="18" stdDeviation="18" flood-color="#000" flood-opacity=".38"/></filter>
  </defs>
  <rect width="390" height="780" rx="44" fill="#050608"/>
  <rect x="12" y="12" width="366" height="756" rx="36" fill="url(#bg)" stroke="#fff" stroke-opacity=".10"/>
  <rect x="146" y="28" width="98" height="21" rx="11" fill="#040506"/>
  <text x="342" y="70" text-anchor="end" font-family="Arial, sans-serif" font-size="29" font-weight="900" fill="#fff">Poenta</text>
  <circle cx="50" cy="60" r="13" fill="none" stroke="#ffc400" stroke-width="5"/><circle cx="50" cy="60" r="4" fill="#ffc400"/>
  <text x="342" y="98" text-anchor="end" font-family="Arial, sans-serif" font-size="16" font-weight="900" fill="#ffc400">פיד אישי</text>
  <text x="342" y="120" text-anchor="end" font-family="Arial, sans-serif" font-size="12" font-weight="700" fill="#9aa3b2">הכותרות שהכי רלוונטיות לך עכשיו</text>
  <rect x="32" y="143" width="326" height="42" rx="21" fill="#17120a" stroke="#ffc400" stroke-opacity=".22"/>
  <rect x="188" y="143" width="170" height="42" rx="21" fill="#ffc400"/>
  <text x="273" y="170" text-anchor="middle" font-family="Arial, sans-serif" font-size="14" font-weight="900" fill="#07080a">מדד החדשים שלך</text>
  <text x="54" y="170" text-anchor="start" font-family="Arial, sans-serif" font-size="11" font-weight="800" fill="#b5bcc8">LIVE · 2026-05-31 15:27</text>
  <g filter="url(#shadow)">
    <rect x="30" y="208" width="330" height="158" rx="25" fill="url(#card)" stroke="#fff" stroke-opacity=".09"/>
    <rect x="246" y="226" width="92" height="70" rx="18" fill="#222b38"/>
    <rect x="246" y="226" width="92" height="70" rx="18" fill="#ffc400" opacity=".16"/>
    <circle cx="292" cy="261" r="22" fill="#ffc400" opacity=".92"/>
    <text x="292" y="269" text-anchor="middle" font-family="Arial, sans-serif" font-size="18" font-weight="900" fill="#07080a">1</text>
    <rect x="48" y="228" width="68" height="24" rx="12" fill="#ffc400" opacity=".20"/>
    <text x="82" y="245" text-anchor="middle" font-family="Arial, sans-serif" font-size="11" font-weight="900" fill="#ffc400">ביטחון</text>
    <text x="230" y="248" text-anchor="end" font-family="Arial, sans-serif" font-size="11" font-weight="800" fill="#9aa3b2">וואלה</text>
    <text x="230" y="276" text-anchor="end" font-family="Arial, sans-serif" font-size="18" font-weight="900" fill="#fff">חמאס מחפש מפקד חדש</text>
    <text x="230" y="299" text-anchor="end" font-family="Arial, sans-serif" font-size="18" font-weight="900" fill="#fff">לזרוע הצבאית אחרי</text>
    <text x="338" y="321" text-anchor="end" font-family="Arial, sans-serif" font-size="12" font-weight="700" fill="#b9c0cc">המאבק מול חמאס עובר גם לשאלה מי</text>
    <text x="338" y="338" text-anchor="end" font-family="Arial, sans-serif" font-size="12" font-weight="700" fill="#b9c0cc">מסוגל לשקם את שרשרת הפיקוד</text>
    <text x="338" y="355" text-anchor="end" font-family="Arial, sans-serif" font-size="12" font-weight="700" fill="#b9c0cc">שנפגעה.</text>
  </g>
  <g filter="url(#shadow)">
    <rect x="30" y="382" width="330" height="158" rx="25" fill="url(#card)" stroke="#fff" stroke-opacity=".09"/>
    <rect x="246" y="400" width="92" height="70" rx="18" fill="#222b38"/>
    <rect x="246" y="400" width="92" height="70" rx="18" fill="#ffc400" opacity=".16"/>
    <circle cx="292" cy="435" r="22" fill="#ffc400" opacity=".92"/>
    <text x="292" y="443" text-anchor="middle" font-family="Arial, sans-serif" font-size="18" font-weight="900" fill="#07080a">2</text>
    <rect x="48" y="402" width="68" height="24" rx="12" fill="#ffc400" opacity=".20"/>
    <text x="82" y="419" text-anchor="middle" font-family="Arial, sans-serif" font-size="11" font-weight="900" fill="#ffc400">פוליטיקה</text>
    <text x="230" y="422" text-anchor="end" font-family="Arial, sans-serif" font-size="11" font-weight="800" fill="#9aa3b2">Jerusalem Post</text>
    <text x="230" y="450" text-anchor="end" font-family="Arial, sans-serif" font-size="18" font-weight="900" fill="#fff">שיטפונות מחליפים את</text>
    <text x="230" y="473" text-anchor="end" font-family="Arial, sans-serif" font-size="18" font-weight="900" fill="#fff">הבצורת סביב הפרת בסוריה</text>
    <text x="338" y="495" text-anchor="end" font-family="Arial, sans-serif" font-size="12" font-weight="700" fill="#b9c0cc">משבר מים אינו רק מחסור; גם עודף</text>
    <text x="338" y="512" text-anchor="end" font-family="Arial, sans-serif" font-size="12" font-weight="700" fill="#b9c0cc">פתאומי יכול לשתק מדינות לא</text>
    <text x="338" y="529" text-anchor="end" font-family="Arial, sans-serif" font-size="12" font-weight="700" fill="#b9c0cc">מוכנות.</text>
  </g>
  <g filter="url(#shadow)">
    <rect x="30" y="556" width="330" height="158" rx="25" fill="url(#card)" stroke="#fff" stroke-opacity=".09"/>
    <rect x="246" y="574" width="92" height="70" rx="18" fill="#222b38"/>
    <rect x="246" y="574" width="92" height="70" rx="18" fill="#ffc400" opacity=".16"/>
    <circle cx="292" cy="609" r="22" fill="#ffc400" opacity=".92"/>
    <text x="292" y="617" text-anchor="middle" font-family="Arial, sans-serif" font-size="18" font-weight="900" fill="#07080a">3</text>
    <rect x="48" y="576" width="68" height="24" rx="12" fill="#ffc400" opacity=".20"/>
    <text x="82" y="593" text-anchor="middle" font-family="Arial, sans-serif" font-size="11" font-weight="900" fill="#ffc400">ספורט</text>
    <text x="230" y="596" text-anchor="end" font-family="Arial, sans-serif" font-size="11" font-weight="800" fill="#9aa3b2">וואלה</text>
    <text x="230" y="624" text-anchor="end" font-family="Arial, sans-serif" font-size="18" font-weight="900" fill="#fff">הפועל ירושלים פותחת</text>
    <text x="230" y="647" text-anchor="end" font-family="Arial, sans-serif" font-size="18" font-weight="900" fill="#fff">פלייאוף בלי אוסטין</text>
    <text x="338" y="669" text-anchor="end" font-family="Arial, sans-serif" font-size="12" font-weight="700" fill="#b9c0cc">ירושלים נכנסת לרגעי ההכרעה עם</text>
    <text x="338" y="686" text-anchor="end" font-family="Arial, sans-serif" font-size="12" font-weight="700" fill="#b9c0cc">עומק פנים קצר יותר ובלי שחקן</text>
    <text x="338" y="703" text-anchor="end" font-family="Arial, sans-serif" font-size="12" font-weight="700" fill="#b9c0cc">המפתח שלה בצבע.</text>
  </g>
  <rect x="78" y="724" width="234" height="34" rx="17" fill="#0b0e14" stroke="#fff" stroke-opacity=".10"/>
  <circle cx="120" cy="741" r="5" fill="#8b93a3"/><circle cx="173" cy="741" r="5" fill="#8b93a3"/><circle cx="226" cy="741" r="5" fill="#ffc400"/><circle cx="279" cy="741" r="5" fill="#8b93a3"/>
</svg>